<?xml version="1.0" encoding="UTF-8"?>
<svg xmlns="http://www.w3.org/2000/svg" xmlns:xlink="http://www.w3.org/1999/xlink" width="18pt" height="18pt" viewBox="0 0 18 18" version="1.1">
<g
<path style=" stroke:none;fill-rule:nonzero;fill:rgb(0%,0%,0%);fill-opacity:1;" d="M 4.027344 15.75 L 0.296875 15.75 L 0.296875 5.234375 L 4.027344 5.234375 Z M 2.160156 3.800781 C 0.96875 3.800781 0 2.9375 0 1.890625 C 0 0.847656 0.96875 0 2.160156 0 C 3.355469 0 4.324219 0.847656 4.324219 1.890625 C 4.324219 2.9375 3.355469 3.800781 2.160156 3.800781 Z M 17.996094 15.75 L 14.273438 15.75 L 14.273438 10.632812 C 14.273438 9.410156 14.242188 7.847656 12.332031 7.847656 C 10.390625 7.847656 10.09375 9.171875 10.09375 10.542969 L 10.09375 15.75 L 6.367188 15.75 L 6.367188 5.234375 L 9.945312 5.234375 L 9.945312 6.667969 L 9.996094 6.667969 C 10.496094 5.84375 11.714844 4.972656 13.527344 4.972656 C 17.304688 4.972656 18 7.148438 18 9.972656 L 18 15.75 Z M 17.996094 15.75 "/>
</g>
</svg>
