<?xml version="1.0" encoding="UTF-8"?>
<svg xmlns="http://www.w3.org/2000/svg" xmlns:xlink="http://www.w3.org/1999/xlink" width="18pt" height="18pt" viewBox="0 0 18 18" version="1.1">
<g id="surface1">
<path style=" stroke:none;fill-rule:nonzero;fill:rgb(0%,0%,0%);fill-opacity:1;" d="M 9.5625 0.226562 C 4.753906 0.226562 0 2.632812 0 6.523438 C 0 9 1.855469 10.40625 2.980469 10.40625 C 3.445312 10.40625 3.710938 9.4375 3.710938 9.160156 C 3.710938 8.835938 2.601562 8.140625 2.601562 6.777344 C 2.601562 3.953125 5.46875 1.949219 9.183594 1.949219 C 12.375 1.949219 14.738281 3.308594 14.738281 5.808594 C 14.738281 7.675781 13.738281 11.175781 10.503906 11.175781 C 9.335938 11.175781 8.339844 10.542969 8.339844 9.636719 C 8.339844 8.308594 9.578125 7.019531 9.578125 5.648438 C 9.578125 3.320312 5.175781 3.742188 5.175781 6.554688 C 5.175781 7.148438 5.273438 7.800781 5.625 8.339844 C 4.976562 10.425781 3.65625 13.539062 3.65625 15.691406 C 3.65625 16.355469 3.78125 17.007812 3.867188 17.671875 C 4.027344 17.804688 3.945312 17.792969 4.191406 17.726562 C 6.554688 15.300781 6.46875 14.824219 7.539062 11.652344 C 8.113281 12.472656 9.605469 12.917969 10.785156 12.917969 C 15.765625 12.917969 18 9.277344 18 5.996094 C 18 2.507812 13.976562 0.226562 9.5625 0.226562 Z M 9.5625 0.226562 "/>
</g>
</svg>
